<svg xmlns="http://www.w3.org/2000/svg" xmlns:xlink="http://www.w3.org/1999/xlink" viewBox="0,0,256,256" width="144px" height="144px" fill-rule="nonzero"><g fill="none" fill-rule="nonzero" stroke="none" stroke-width="1" stroke-linecap="butt" stroke-linejoin="miter" stroke-miterlimit="10" stroke-dasharray="" stroke-dashoffset="0" font-family="none" font-weight="none" font-size="none" text-anchor="none" style="mix-blend-mode: normal"><g transform="scale(5.33333,5.33333)"><path d="M33.5,16c-2.5,0 -4.8,1 -6.5,2.6c-1.7,-1.6 -4,-2.6 -6.5,-2.6c-5.2,0 -9.5,4.3 -9.5,9.5v11.5h6v-12.5c0,-1.9 1.6,-3.5 3.5,-3.5c1.9,0 3.5,1.6 3.5,3.5v12.5h6v-12.5c0,-1.9 1.6,-3.5 3.5,-3.5c1.9,0 3.5,1.6 3.5,3.5v12.5h6v-11.5c0,-5.2 -4.3,-9.5 -9.5,-9.5z" fill="#2bb05a"></path><path d="M5.5,16.2h1v15.8h-1z" fill="#000000"></path><path d="M22,13c1.1,0.4 2.6,2 3,3c-1.8,1.7 -2.6,2.9 -3,6c-0.1,1.1 -0.9,1.7 -2,1c-3.1,-1.9 -6,-2 -8,-2c-1,-1 -0.5,-3.7 0,-5l6,1z" fill="#424242"></path><path d="M18,17h-14l11,-7h14z" fill="#616161"></path><path d="M7.5,30c0,-2.2 -0.7,-4 -1.5,-4c-0.8,0 -1.5,1.8 -1.5,4c0,2.2 0.7,4 1.5,4c0.8,0 1.5,-1.8 1.5,-4z" fill="#424242"></path></g></g></svg>