<svg width="686" height="594" viewBox="0 0 686 594" fill="none" xmlns="http://www.w3.org/2000/svg">
<g clip-path="url(#clip0_923_15)">
<path d="M413.911 549.611C423.842 556.679 435.157 592.409 435.157 592.409C435.157 592.409 399.737 594.861 389.808 587.797C387.446 586.117 385.419 583.959 383.842 581.447C382.265 578.934 381.17 576.117 380.619 573.155C380.068 570.193 380.072 567.144 380.63 564.184C381.189 561.223 382.291 558.409 383.874 555.901C385.457 553.393 387.49 551.241 389.856 549.567C392.222 547.894 394.876 546.732 397.665 546.148C400.455 545.564 403.325 545.569 406.113 546.163C408.9 546.758 411.55 547.929 413.911 549.611Z" fill="#F1F1F1"/>
<path d="M435.56 592.14L435.005 592.61C414.765 565.644 384.22 556.33 383.914 556.239L384.105 555.513C384.414 555.604 415.172 564.978 435.56 592.14Z" fill="white"/>
<path d="M467.023 535.357C466.39 552.916 434.959 593.013 434.959 593.013C434.959 593.013 406.525 550.468 407.157 532.916C407.461 524.485 410.907 516.528 416.737 510.796C422.566 505.063 430.301 502.024 438.239 502.348C446.178 502.672 453.671 506.331 459.069 512.522C464.467 518.712 467.328 526.926 467.023 535.357Z" fill="#F1F1F1"/>
<path d="M435.551 593.322L434.626 592.969C449.854 548.064 438.016 503.08 437.894 502.631L438.838 502.343C438.961 502.795 450.889 548.091 435.551 593.322Z" fill="white"/>
<path d="M354.165 435.45H84.7863C79.9871 435.444 75.3861 433.417 71.9926 429.813C68.5991 426.21 66.6902 421.323 66.6848 416.227V89.3006C66.6902 84.204 68.5991 79.3178 71.9926 75.714C75.3861 72.1101 79.9871 70.0829 84.7863 70.0771H354.165C358.964 70.0829 363.565 72.1101 366.958 75.7139C370.352 79.3178 372.261 84.204 372.266 89.3006V416.227C372.261 421.323 370.352 426.21 366.958 429.813C363.565 433.417 358.964 435.444 354.165 435.45Z" fill="#E6E6E6"/>
<path d="M341.577 419.428H97.3737C93.1126 419.423 89.0274 417.623 86.0143 414.423C83.0012 411.224 81.3063 406.885 81.3015 402.36V103.167C81.3063 98.642 83.0012 94.3036 86.0143 91.1038C89.0274 87.9039 93.1126 86.104 97.3737 86.0989H341.577C345.838 86.104 349.924 87.9039 352.937 91.1037C355.95 94.3036 357.645 98.642 357.649 103.167V402.36C357.645 406.885 355.95 411.224 352.937 414.423C349.924 417.623 345.838 419.423 341.577 419.428Z" fill="white"/>
<path d="M331.862 128.682H208.669C208.141 128.683 207.618 128.573 207.129 128.359C206.641 128.145 206.198 127.831 205.824 127.435C205.45 127.039 205.154 126.568 204.952 126.05C204.749 125.532 204.645 124.976 204.645 124.416C204.645 123.855 204.749 123.299 204.952 122.781C205.154 122.263 205.45 121.793 205.824 121.396C206.198 121 206.641 120.686 207.129 120.472C207.618 120.258 208.141 120.148 208.669 120.149H331.862C332.39 120.148 332.914 120.258 333.402 120.472C333.89 120.686 334.333 121 334.707 121.396C335.081 121.793 335.377 122.263 335.579 122.781C335.782 123.299 335.886 123.855 335.886 124.416C335.886 124.976 335.782 125.532 335.579 126.05C335.377 126.568 335.081 127.039 334.707 127.435C334.333 127.831 333.89 128.145 333.402 128.359C332.914 128.573 332.39 128.683 331.862 128.682Z" fill="#E4E4E4"/>
<path d="M331.862 145.543H208.669C207.603 145.543 206.581 145.093 205.828 144.293C205.074 143.493 204.651 142.407 204.651 141.276C204.651 140.144 205.074 139.059 205.828 138.258C206.581 137.458 207.603 137.009 208.669 137.009H331.862C332.928 137.009 333.95 137.458 334.704 138.258C335.457 139.059 335.88 140.144 335.88 141.276C335.88 142.407 335.457 143.493 334.704 144.293C333.95 145.093 332.928 145.543 331.862 145.543Z" fill="#E4E4E4"/>
<path d="M262.07 162.403H208.669C207.603 162.403 206.581 161.953 205.828 161.153C205.074 160.353 204.651 159.267 204.651 158.136C204.651 157.004 205.074 155.919 205.828 155.118C206.581 154.318 207.603 153.869 208.669 153.869H262.07C263.136 153.869 264.158 154.318 264.911 155.118C265.665 155.919 266.088 157.004 266.088 158.136C266.088 159.267 265.665 160.353 264.911 161.153C264.158 161.953 263.136 162.403 262.07 162.403Z" fill="#E4E4E4"/>
<path d="M317.007 230.498H122.522C121.994 230.499 121.471 230.389 120.983 230.175C120.495 229.961 120.051 229.647 119.678 229.251C119.304 228.855 119.007 228.384 118.805 227.866C118.603 227.348 118.499 226.792 118.499 226.232C118.499 225.671 118.603 225.115 118.805 224.597C119.007 224.079 119.304 223.609 119.678 223.212C120.051 222.816 120.495 222.502 120.983 222.288C121.471 222.074 121.994 221.964 122.522 221.965H317.007C317.535 221.964 318.058 222.074 318.546 222.288C319.034 222.502 319.478 222.816 319.851 223.212C320.225 223.609 320.521 224.079 320.724 224.597C320.926 225.115 321.03 225.671 321.03 226.232C321.03 226.792 320.926 227.348 320.724 227.866C320.521 228.384 320.225 228.855 319.851 229.251C319.478 229.647 319.034 229.961 318.546 230.175C318.058 230.389 317.535 230.499 317.007 230.498Z" fill="#E4E4E4"/>
<path d="M317.007 247.358H122.522C121.457 247.358 120.435 246.909 119.681 246.109C118.928 245.308 118.504 244.223 118.504 243.091C118.504 241.96 118.928 240.874 119.681 240.074C120.435 239.274 121.457 238.824 122.522 238.824H317.007C318.072 238.824 319.094 239.274 319.848 240.074C320.601 240.874 321.025 241.96 321.025 243.091C321.025 244.223 320.601 245.308 319.848 246.109C319.094 246.909 318.072 247.358 317.007 247.358Z" fill="#E4E4E4"/>
<path d="M317.007 285.63H122.522C121.457 285.63 120.435 285.181 119.681 284.381C118.928 283.58 118.505 282.495 118.505 281.363C118.505 280.232 118.928 279.147 119.681 278.346C120.435 277.546 121.457 277.097 122.522 277.097H317.007C318.072 277.097 319.094 277.546 319.848 278.346C320.601 279.147 321.024 280.232 321.024 281.363C321.024 282.495 320.601 283.58 319.848 284.381C319.094 285.181 318.072 285.63 317.007 285.63Z" fill="#E4E4E4"/>
<path d="M317.007 302.49H122.522C121.457 302.49 120.435 302.041 119.681 301.241C118.928 300.44 118.504 299.355 118.504 298.223C118.504 297.092 118.928 296.006 119.681 295.206C120.435 294.406 121.457 293.956 122.522 293.956H317.007C318.072 293.956 319.094 294.406 319.848 295.206C320.601 296.006 321.025 297.092 321.025 298.223C321.025 299.355 320.601 300.44 319.848 301.241C319.094 302.041 318.072 302.49 317.007 302.49Z" fill="#E4E4E4"/>
<path d="M317.007 340.762H122.522C121.457 340.762 120.435 340.313 119.681 339.512C118.928 338.712 118.505 337.627 118.505 336.495C118.505 335.364 118.928 334.279 119.681 333.478C120.435 332.678 121.457 332.229 122.522 332.229H317.007C318.072 332.229 319.094 332.678 319.848 333.478C320.601 334.279 321.024 335.364 321.024 336.495C321.024 337.627 320.601 338.712 319.848 339.512C319.094 340.313 318.072 340.762 317.007 340.762Z" fill="#E4E4E4"/>
<path d="M317.007 357.622H122.522C121.457 357.622 120.435 357.173 119.681 356.373C118.928 355.572 118.504 354.487 118.504 353.355C118.504 352.224 118.928 351.138 119.681 350.338C120.435 349.538 121.457 349.088 122.522 349.088H317.007C318.072 349.088 319.094 349.538 319.848 350.338C320.601 351.138 321.025 352.224 321.025 353.355C321.025 354.487 320.601 355.572 319.848 356.373C319.094 357.173 318.072 357.622 317.007 357.622Z" fill="#E4E4E4"/>
<path d="M316.972 404.324H263.571C262.505 404.324 261.483 403.875 260.73 403.075C259.976 402.274 259.553 401.189 259.553 400.057C259.553 398.926 259.976 397.84 260.73 397.04C261.483 396.24 262.505 395.79 263.571 395.79H316.972C318.038 395.79 319.06 396.24 319.813 397.04C320.567 397.84 320.99 398.926 320.99 400.057C320.99 401.189 320.567 402.274 319.813 403.075C319.06 403.875 318.038 404.324 316.972 404.324Z" fill="#2BB05A"/>
<path d="M174.567 141.775C174.578 150.939 171.656 159.834 166.282 167.003C164.544 169.336 162.565 171.455 160.382 173.321C154.426 178.452 147.148 181.552 139.503 182.214C138.462 182.31 137.413 182.354 136.356 182.354C134.261 182.354 132.17 182.171 130.104 181.806C129.375 181.684 128.662 181.536 127.949 181.362C126.708 181.068 125.482 180.705 124.278 180.274C120.371 178.893 116.701 176.847 113.412 174.217C112.535 173.521 111.691 172.781 110.872 171.998C109.87 171.054 108.92 170.049 108.028 168.987C107.791 168.709 107.553 168.421 107.324 168.134C103.325 163.165 100.517 157.242 99.1379 150.872C97.7587 144.501 97.8495 137.871 99.4026 131.546C100.956 125.221 103.925 119.388 108.058 114.544C112.19 109.7 117.364 105.988 123.139 103.724C128.913 101.461 135.117 100.713 141.222 101.544C147.327 102.374 153.153 104.76 158.203 108.496C163.254 112.233 167.379 117.21 170.228 123.005C173.077 128.799 174.566 135.239 174.567 141.775Z" fill="#E4E4E4"/>
<path d="M135.026 155.624C143.674 155.624 150.685 148.179 150.685 138.995C150.685 129.811 143.674 122.366 135.026 122.366C126.378 122.366 119.368 129.811 119.368 138.995C119.368 148.179 126.378 155.624 135.026 155.624Z" fill="#9E616A"/>
<path d="M152.458 130.889C152.529 129.403 152.134 127.934 151.336 126.712L150.77 125.859C148.73 121.682 145.362 117.922 142.896 115.172C141.043 113.11 139.192 112.118 137.413 112.214C136.119 112.312 134.914 112.95 134.062 113.989C131.72 113.837 129.387 114.414 127.35 115.649C125.312 116.884 123.658 118.724 122.59 120.942C115.092 125.145 117.329 137.555 117.353 137.685L119.165 140.914L119.37 140.505C119.37 140.496 119.394 140.461 119.427 140.392C119.779 139.721 121.697 135.997 122.991 133.639C123.464 132.834 124.093 132.146 124.835 131.62C126.048 130.74 127.442 130.182 128.9 129.992L132.882 129.444L131.374 131.846H142.223L146.394 131.324C146.812 133.143 150.123 140.2 150.524 141.053L150.557 141.123L150.778 141.601L152.016 137.99C152.738 135.703 152.891 133.257 152.458 130.889Z" fill="#2F2E41"/>
<path d="M113.527 174.304C114.199 173.364 117.681 168.978 125.695 166.655L129.94 161.634L146.96 158.753L155.621 163.835L166.282 167.003C164.544 169.336 162.565 171.455 160.382 173.321C154.425 178.452 147.148 181.552 139.503 182.214C138.462 182.31 137.413 182.354 136.356 182.354C134.262 182.354 132.17 182.171 130.104 181.805C129.375 181.684 128.662 181.536 127.949 181.362C126.708 181.068 125.482 180.705 124.278 180.274C120.415 178.911 116.785 176.895 113.527 174.304C113.486 174.278 113.453 174.243 113.412 174.217L113.527 174.304Z" fill="#2BB05A"/>
<path d="M436.52 20.3533H2.43147C1.78682 20.3526 1.16878 20.0803 0.712941 19.5962C0.257105 19.1121 0.000702755 18.4558 0 17.7712V2.58216C0.000702755 1.89756 0.257105 1.24121 0.712941 0.757122C1.16878 0.273034 1.78682 0.000746311 2.43147 0H436.52C437.164 0.000746311 437.782 0.273034 438.238 0.757122C438.694 1.24121 438.95 1.89756 438.951 2.58216V17.7712C438.95 18.4558 438.694 19.1121 438.238 19.5962C437.782 20.0803 437.164 20.3526 436.52 20.3533Z" fill="#2BB05A"/>
<path d="M14.1109 13.1018C16.0174 13.1018 17.563 11.4605 17.563 9.4358C17.563 7.41111 16.0174 5.76978 14.1109 5.76978C12.2044 5.76978 10.6588 7.41111 10.6588 9.4358C10.6588 11.4605 12.2044 13.1018 14.1109 13.1018Z" fill="white"/>
<path d="M27.2138 13.1018C29.1203 13.1018 30.6659 11.4605 30.6659 9.4358C30.6659 7.41111 29.1203 5.76978 27.2138 5.76978C25.3073 5.76978 23.7617 7.41111 23.7617 9.4358C23.7617 11.4605 25.3073 13.1018 27.2138 13.1018Z" fill="white"/>
<path d="M40.3173 13.1018C42.2238 13.1018 43.7694 11.4605 43.7694 9.4358C43.7694 7.41111 42.2238 5.76978 40.3173 5.76978C38.4108 5.76978 36.8652 7.41111 36.8652 9.4358C36.8652 11.4605 38.4108 13.1018 40.3173 13.1018Z" fill="white"/>
<path d="M423.682 6.91249H408.593C408.298 6.90981 408.017 6.78358 407.809 6.56128C407.601 6.33897 407.485 6.03861 407.485 5.72556C407.485 5.41251 407.601 5.11214 407.809 4.88984C408.017 4.66753 408.298 4.5413 408.593 4.53862H423.682C423.829 4.53728 423.976 4.56699 424.112 4.62604C424.249 4.68508 424.373 4.7723 424.478 4.88265C424.583 4.993 424.666 5.1243 424.723 5.26897C424.78 5.41364 424.809 5.56883 424.809 5.72556C424.809 5.88229 424.78 6.03747 424.723 6.18214C424.666 6.32681 424.583 6.45812 424.478 6.56847C424.373 6.67882 424.249 6.76603 424.112 6.82508C423.976 6.88413 423.829 6.91384 423.682 6.91249Z" fill="white"/>
<path d="M423.682 11.3635H408.593C408.297 11.3635 408.012 11.2385 407.803 11.0159C407.593 10.7933 407.475 10.4914 407.475 10.1766C407.475 9.86181 407.593 9.55991 407.803 9.33731C408.012 9.11472 408.297 8.98967 408.593 8.98967H423.682C423.829 8.98833 423.975 9.01803 424.112 9.07708C424.249 9.13613 424.373 9.22334 424.478 9.33369C424.583 9.44405 424.666 9.57535 424.723 9.72002C424.78 9.86469 424.809 10.0199 424.809 10.1766C424.809 10.3333 424.78 10.4885 424.723 10.6332C424.666 10.7779 424.583 10.9092 424.478 11.0195C424.373 11.1299 424.249 11.2171 424.112 11.2761C423.975 11.3352 423.829 11.3649 423.682 11.3635Z" fill="white"/>
<path d="M423.682 15.8146H408.593C408.298 15.812 408.016 15.6858 407.809 15.4635C407.601 15.2412 407.484 14.9408 407.484 14.6276C407.484 14.3145 407.601 14.014 407.809 13.7917C408.016 13.5694 408.298 13.4432 408.593 13.4407H423.682C423.976 13.4432 424.258 13.5694 424.466 13.7917C424.674 14.014 424.79 14.3145 424.79 14.6276C424.79 14.9408 424.674 15.2412 424.466 15.4635C424.258 15.6858 423.976 15.812 423.682 15.8146Z" fill="white"/>
<path d="M542.856 408.458C542.162 407.655 541.641 406.701 541.332 405.662C541.022 404.623 540.931 403.525 541.065 402.444C541.198 401.363 541.553 400.327 542.104 399.408C542.656 398.489 543.39 397.709 544.256 397.124L538.503 371.347L550.679 376.071L554.275 399.825C555.104 401.435 555.348 403.312 554.962 405.1C554.575 406.888 553.584 408.464 552.176 409.528C550.769 410.592 549.042 411.071 547.325 410.874C545.607 410.676 544.017 409.817 542.856 408.458Z" fill="#9E616A"/>
<path d="M513.577 300.439L518.463 313.783C518.463 313.783 516.369 327.127 519.859 330.092C523.35 333.057 521.953 333.057 521.953 335.281C522.074 336.877 522.509 338.427 523.23 339.832C523.952 341.237 524.944 342.465 526.142 343.436C528.934 345.66 541.499 390.88 541.499 390.88H554.064C553.658 387.434 553.658 383.948 554.064 380.502C554.762 375.313 551.97 361.969 550.574 359.745C549.178 357.521 550.574 354.556 550.574 350.108C550.574 345.66 547.781 343.436 547.781 336.023C547.781 328.61 539.405 270.787 540.103 264.115C540.801 257.443 533.122 251.512 533.122 251.512H526.142L513.577 300.439Z" fill="#E4E4E4"/>
<path d="M545.71 582.373H536.425L532.007 544.333L545.712 544.334L545.71 582.373Z" fill="#9E616A"/>
<path d="M548.079 591.932L518.136 591.931V591.529C518.136 588.246 519.364 585.098 521.55 582.777C523.736 580.456 526.7 579.152 529.791 579.152L535.261 574.745L545.466 579.153L548.08 579.153L548.079 591.932Z" fill="#2F2E41"/>
<path d="M460.759 582.091L452.038 578.702L460.194 541.367L473.066 546.368L460.759 582.091Z" fill="#9E616A"/>
<path d="M459.891 591.932L431.771 581.007L431.901 580.629C432.963 577.547 435.134 575.038 437.938 573.656C440.741 572.273 443.947 572.13 446.85 573.258L453.413 571.115L461.571 578.977L464.025 579.931L459.891 591.932Z" fill="#2F2E41"/>
<path d="M525.251 404.499C525.251 404.499 518.969 437.117 529.44 434.151C539.91 431.186 535.722 403.016 535.722 403.016L525.251 404.499Z" fill="#A0616A"/>
<path d="M479.18 377.44C479.18 377.44 470.803 389.302 470.803 395.973C470.803 402.645 468.011 461.951 468.011 461.951C468.011 461.951 446.816 550.264 451.005 554.712C455.193 559.16 469.852 563.608 471.946 561.384C474.04 559.16 492.443 467.881 492.443 467.881L509.894 418.213L525.949 489.38L527.345 564.994C527.345 564.994 544.797 569.442 548.287 566.477C551.777 563.512 552.475 491.604 548.287 466.399C544.099 441.194 548.985 383.371 548.985 383.371L479.18 377.44Z" fill="#2F2E41"/>
<path d="M507.174 219.169C518.74 219.169 528.116 209.212 528.116 196.929C528.116 184.647 518.74 174.69 507.174 174.69C495.608 174.69 486.233 184.647 486.233 196.929C486.233 209.212 495.608 219.169 507.174 219.169Z" fill="#FFB6B6"/>
<path d="M480.576 251.416C480.576 251.416 486.606 241.875 498.473 229.273C504.755 227.049 515.64 228.345 519.414 229.273C536.866 253.736 537.964 252.111 542.506 265.779C543.684 269.324 544.273 272.729 543.75 275.509C541.656 286.629 548.287 376.699 548.985 379.664C549.683 382.63 554.57 386.336 549.683 386.336C544.797 386.336 470.803 383.371 472.199 381.147C473.595 378.923 480.576 251.416 480.576 251.416Z" fill="#E4E4E4"/>
<path opacity="0.1" d="M477.379 380.169L498.377 331.107L487.878 383.285L477.379 380.169Z" fill="black"/>
<path d="M500.839 217.533C502.799 215.983 504.605 214.224 506.226 212.282C507.854 210.322 508.873 207.877 509.145 205.28C509.264 203.986 509.072 202.68 508.588 201.485C508.104 200.29 507.343 199.244 506.376 198.445C504.381 196.949 501.34 197.036 499.684 198.942C500.484 196.197 501.215 192.958 499.595 190.656C498.12 188.56 495.37 188.204 492.994 187.513C488.413 186.158 484.47 183.04 481.937 178.765L485.971 179.652L485.521 176.597L488.865 177.832L488.894 173.578L492.345 175.628C496.569 171.515 502.136 169.313 507.864 169.487C510.754 169.538 513.584 170.364 516.093 171.886C518.608 173.431 520.512 175.888 521.455 178.806C523.231 176.848 526.398 176.999 528.514 178.529C530.629 180.059 531.872 182.619 532.726 185.182C534.416 190.097 534.809 195.409 533.863 200.544C532.89 205.692 530.278 210.326 526.467 213.67C522.967 216.507 518.8 218.268 514.421 218.759C510.06 219.239 505.657 219.039 501.351 218.166" fill="#2F2E41"/>
<path d="M470.842 408.362C471.536 407.559 472.057 406.605 472.366 405.566C472.676 404.527 472.767 403.428 472.634 402.348C472.5 401.267 472.145 400.231 471.594 399.312C471.042 398.393 470.308 397.613 469.442 397.028L475.195 371.251L463.019 375.975L459.423 399.729C458.594 401.339 458.35 403.216 458.737 405.004C459.123 406.792 460.114 408.368 461.522 409.432C462.93 410.496 464.656 410.975 466.373 410.777C468.091 410.58 469.681 409.721 470.842 408.362Z" fill="#9E616A"/>
<path d="M487.556 251.416H480.576C480.576 251.416 472.897 257.347 473.595 264.019C474.293 270.69 465.917 328.513 465.917 335.927C465.917 343.34 463.124 345.564 463.124 350.012C463.124 354.46 464.521 357.425 463.124 359.649C461.728 361.873 458.936 375.216 459.634 380.406C460.04 383.852 460.04 387.338 459.634 390.784H472.199C472.199 390.784 484.764 345.564 487.556 343.34C488.754 342.369 489.746 341.141 490.468 339.736C491.189 338.331 491.624 336.781 491.745 335.185C491.745 332.961 490.349 332.961 493.839 329.996C497.329 327.031 495.235 313.687 495.235 313.687L500.121 300.343L487.556 251.416Z" fill="#E4E4E4"/>
<path d="M685.024 594H302.108C301.979 594 301.852 593.974 301.733 593.922C301.615 593.87 301.507 593.794 301.416 593.698C301.325 593.601 301.253 593.487 301.204 593.361C301.154 593.235 301.129 593.1 301.129 592.964C301.129 592.828 301.154 592.693 301.204 592.567C301.253 592.441 301.325 592.326 301.416 592.23C301.507 592.134 301.615 592.058 301.733 592.006C301.852 591.954 301.979 591.927 302.108 591.928H685.024C685.153 591.927 685.28 591.954 685.399 592.006C685.517 592.058 685.625 592.134 685.716 592.23C685.807 592.326 685.879 592.441 685.928 592.567C685.978 592.693 686.003 592.828 686.003 592.964C686.003 593.1 685.978 593.235 685.928 593.361C685.879 593.487 685.807 593.601 685.716 593.698C685.625 593.794 685.517 593.87 685.399 593.922C685.28 593.974 685.153 594 685.024 594Z" fill="#CACACA"/>
</g>
<defs>
<clipPath id="clip0_923_15">
<rect width="686" height="594" fill="white"/>
</clipPath>
</defs>
</svg>
